<?xml version="1.0" encoding="iso-8859-1"?>
<!-- Uploaded to: SVG Repo, www.svgrepo.com, Generator: SVG Repo Mixer Tools -->
<!DOCTYPE svg PUBLIC "-//W3C//DTD SVG 1.1//EN" "http://www.w3.org/Graphics/SVG/1.1/DTD/svg11.dtd">
<svg fill="#000000" height="800px" width="800px" version="1.1" id="Capa_1" xmlns="http://www.w3.org/2000/svg" xmlns:xlink="http://www.w3.org/1999/xlink" 
	 viewBox="0 0 511 511" xml:space="preserve">
<path d="M489.16,159.043l3.728-13.771c1.083-3.998-1.281-8.117-5.279-9.199L127.887,38.688l9.285-18.866
	c0.99-2.011,1.028-4.359,0.105-6.401c-0.923-2.042-2.711-3.564-4.874-4.15l-29.506-7.987c-2.095-0.566-4.33-0.2-6.132,1.007
	c-1.802,1.207-2.994,3.134-3.268,5.286l-2.682,21.076l-51.083-13.83c-1.92-0.52-3.968-0.255-5.693,0.735
	c-1.725,0.99-2.986,2.625-3.506,4.545l-6.271,23.166c-1.083,3.998,1.281,8.117,5.279,9.199l393.433,106.511H23.5
	c-12.958,0-23.5,10.542-23.5,23.5v304c0,12.958,10.542,23.5,23.5,23.5h464c12.958,0,23.5-10.542,23.5-23.5v-304
	C511,170.079,501.345,159.899,489.16,159.043z M107.29,18.011l12.403,3.358l-6.558,13.324l-7.703-2.085L107.29,18.011z
	 M43.051,31.261L476.45,148.592l-2.352,8.687L40.699,39.948L43.051,31.261z M496,486.478c0,4.687-3.813,8.5-8.5,8.5h-464
	c-4.687,0-8.5-3.813-8.5-8.5v-304c0-4.687,3.813-8.5,8.5-8.5h464c4.687,0,8.5,3.813,8.5,8.5V486.478z"/>
</svg>