<?xml version="1.0" encoding="iso-8859-1"?>
<!-- Uploaded to: SVG Repo, www.svgrepo.com, Generator: SVG Repo Mixer Tools -->
<!DOCTYPE svg PUBLIC "-//W3C//DTD SVG 1.1//EN" "http://www.w3.org/Graphics/SVG/1.1/DTD/svg11.dtd">
<svg fill="#000000" height="800px" width="800px" version="1.1" id="Capa_1" xmlns="http://www.w3.org/2000/svg" xmlns:xlink="http://www.w3.org/1999/xlink" 
	 viewBox="0 0 463 463" xml:space="preserve">
<g>
	<path d="M439.5,0h-416C10.542,0,0,10.542,0,23.5v416C0,452.458,10.542,463,23.5,463h304c74.715,0,135.5-60.785,135.5-135.5v-304
		C463,10.542,452.458,0,439.5,0z M448,327.5c0,66.444-54.056,120.5-120.5,120.5h-304c-4.687,0-8.5-3.813-8.5-8.5v-416
		c0-4.687,3.813-8.5,8.5-8.5h416c4.687,0,8.5,3.813,8.5,8.5V327.5z"/>
	<path d="M335.5,304c-17.369,0-31.5,14.131-31.5,31.5s14.131,31.5,31.5,31.5s31.5-14.131,31.5-31.5S352.869,304,335.5,304z
		 M335.5,352c-9.098,0-16.5-7.402-16.5-16.5s7.402-16.5,16.5-16.5s16.5,7.402,16.5,16.5S344.598,352,335.5,352z"/>
	<path d="M391.5,40H155.382c-14.825,0-28.762,5.773-39.245,16.256l-59.882,59.882C45.773,126.62,40,140.558,40,155.382V391.5
		c0,17.369,14.131,31.5,31.5,31.5h256c52.659,0,95.5-42.841,95.5-95.5v-256C423,54.131,408.869,40,391.5,40z M408,327.5
		c0,44.388-36.112,80.5-80.5,80.5h-256c-9.098,0-16.5-7.402-16.5-16.5V155.382c0-10.818,4.213-20.988,11.862-28.638l59.882-59.882
		C134.394,59.213,144.564,55,155.382,55H391.5c9.098,0,16.5,7.402,16.5,16.5V327.5z"/>
	<path d="M348.803,114.197c-2.929-2.929-7.678-2.929-10.606,0l-224,224c-2.929,2.929-2.929,7.678,0,10.606
		c1.464,1.464,3.384,2.197,5.303,2.197s3.839-0.732,5.303-2.197l224-224C351.732,121.875,351.732,117.125,348.803,114.197z"/>
	<path d="M119.5,295c1.919,0,3.839-0.732,5.303-2.197l168-168c2.929-2.929,2.929-7.678,0-10.606c-2.929-2.929-7.678-2.929-10.606,0
		l-168,168c-2.929,2.929-2.929,7.678,0,10.606C115.661,294.268,117.581,295,119.5,295z"/>
	<path d="M348.803,170.197c-2.929-2.929-7.678-2.929-10.606,0l-168,168c-2.929,2.929-2.929,7.678,0,10.606
		c1.464,1.464,3.384,2.197,5.303,2.197s3.839-0.732,5.303-2.197l168-168C351.732,177.875,351.732,173.125,348.803,170.197z"/>
	<path d="M119.5,239c1.919,0,3.839-0.732,5.303-2.197l112-112c2.929-2.929,2.929-7.678,0-10.606c-2.929-2.929-7.678-2.929-10.606,0
		l-112,112c-2.929,2.929-2.929,7.678,0,10.606C115.661,238.268,117.581,239,119.5,239z"/>
	<path d="M348.803,226.197c-2.929-2.929-7.678-2.929-10.606,0l-112,112c-2.929,2.929-2.929,7.678,0,10.606
		c1.464,1.464,3.384,2.197,5.303,2.197s3.839-0.732,5.303-2.197l112-112C351.732,233.875,351.732,229.125,348.803,226.197z"/>
	<path d="M119.5,183c1.919,0,3.839-0.732,5.303-2.197l56-56c2.929-2.929,2.929-7.678,0-10.606c-2.929-2.929-7.678-2.929-10.606,0
		l-56,56c-2.929,2.929-2.929,7.678,0,10.606C115.661,182.268,117.581,183,119.5,183z"/>
</g>
</svg>