<?xml version="1.0" encoding="iso-8859-1"?>
<!-- Uploaded to: SVG Repo, www.svgrepo.com, Generator: SVG Repo Mixer Tools -->
<svg fill="#000000" version="1.1" id="Layer_1" xmlns="http://www.w3.org/2000/svg" xmlns:xlink="http://www.w3.org/1999/xlink" 
	 viewBox="0 0 512 512" xml:space="preserve">
<g>
	<g>
		<rect x="119.9" width="15.738" height="15.738"/>
	</g>
</g>
<g>
	<g>
		<rect x="144.031" width="336.787" height="15.738"/>
	</g>
</g>
<g>
	<g>
		<rect x="488.163" width="15.738" height="15.738"/>
	</g>
</g>
<g>
	<g>
		<rect x="119.9" y="496.262" width="15.738" height="15.738"/>
	</g>
</g>
<g>
	<g>
		<rect x="488.163" y="496.262" width="15.738" height="15.738"/>
	</g>
</g>
<g>
	<g>
		<rect x="144.031" y="496.262" width="336.787" height="15.738"/>
	</g>
</g>
<g>
	<g>
		<rect x="175.507" y="55.607" width="15.738" height="39.869"/>
	</g>
</g>
<g>
	<g>
		<path d="M280.424,23.902v-0.08c-0.325,0-0.647,0.012-0.969,0.024c-0.314-0.012-0.627-0.024-0.943-0.024H169.467
			c-0.224,0-0.446,0.012-0.668,0.017c-0.212-0.006-0.424-0.017-0.637-0.017v0.034c-13.386,0.682-24.067,11.786-24.067,25.34v53.024
			c0,13.552,10.682,24.658,24.067,25.339v0.034c0.21-0.001,112.262-0.08,112.262-0.08c13.1-0.982,23.46-11.947,23.46-25.293V49.195
			C303.884,35.848,293.523,24.884,280.424,23.902z M288.145,102.219c0,4.999-3.83,9.119-8.707,9.587
			c-4.671-0.442-7.566-4.011-7.566-7.939h-15.738c0,2.767,0.515,5.462,1.463,7.985h-67.26c0.969-2.523,1.506-5.219,1.506-7.985
			h-15.738c0,3.988-3.385,7.601-7.322,7.951c-4.993-0.35-8.952-4.516-8.952-9.598V49.195c0-5.092,3.973-9.262,8.98-9.602
			c3.925,0.334,7.293,3.642,7.293,7.619h15.738c0-2.66-0.5-5.238-1.4-7.653h67.05c-0.878,2.415-1.359,4.993-1.359,7.653h15.738
			c0-3.921,2.886-7.193,7.544-7.607c4.889,0.458,8.73,4.582,8.73,9.588V102.219z"/>
	</g>
</g>
<g>
	<g>
		<rect x="257.343" y="55.607" width="15.738" height="39.869"/>
	</g>
</g>
<g>
	<g>
		<rect x="352.818" y="55.607" width="15.738" height="39.869"/>
	</g>
</g>
<g>
	<g>
		<path d="M457.506,23.823H342.601c-12.375,0-22.443,10.068-22.443,22.443v58.884c0,12.375,10.068,22.443,22.443,22.443h114.904
			c12.375,0,22.443-10.068,22.443-22.443V46.266C479.949,33.891,469.881,23.823,457.506,23.823z M464.211,105.15
			c0,3.697-3.008,6.705-6.705,6.705h-1.869c-4.197,0-7.701-3.789-7.701-7.985h-15.738c0,2.767,0.525,5.462,1.475,7.985h-67.247
			c0.955-2.523,1.481-5.219,1.481-7.985H352.17c0,4.197-3.549,7.985-7.746,7.985h-1.822c-3.696,0-6.705-3.008-6.705-6.705V46.266
			c0-3.697,3.008-6.705,6.705-6.705h1.822c4.197,0,7.746,3.456,7.746,7.653h15.738c0-2.66-0.491-5.237-1.377-7.653h67.038
			c-0.882,2.415-1.371,4.993-1.371,7.653h15.738c0-4.197,3.504-7.653,7.701-7.653h1.869c3.696,0,6.705,3.008,6.705,6.705V105.15z"/>
	</g>
</g>
<g>
	<g>
		<rect x="432.556" y="55.607" width="15.738" height="39.869"/>
	</g>
</g>
<g>
	<g>
		<path d="M71.933,175.878H31.918c-13.165,0-23.875,10.71-23.875,23.874c0,13.165,10.71,23.875,23.875,23.875h40.015
			c13.165,0,23.875-10.71,23.875-23.875C95.808,186.588,85.098,175.878,71.933,175.878z M31.918,207.89
			c-4.486,0-8.137-3.65-8.137-8.137c0-4.486,3.65-8.136,8.137-8.136h16.636v16.274H31.918z M71.933,207.89h-7.64v-16.274h7.64
			c4.486,0,8.137,3.65,8.137,8.136C80.07,204.24,76.419,207.89,71.933,207.89z"/>
	</g>
</g>
<g>
	<g>
		<path d="M71.933,231.898H31.918c-13.165,0-23.875,10.71-23.875,23.874c0,13.165,10.71,23.875,23.875,23.875h40.015
			c13.165,0,23.875-10.71,23.875-23.875C95.808,242.608,85.098,231.898,71.933,231.898z M31.918,263.911
			c-4.486,0-8.137-3.651-8.137-8.137c0-4.486,3.65-8.136,8.137-8.136h16.636v16.274H31.918z M71.933,263.911h-7.64v-16.274h7.64
			c4.486,0,8.137,3.65,8.137,8.136C80.07,260.26,76.419,263.911,71.933,263.911z"/>
	</g>
</g>
<g>
	<g>
		<rect x="384.294" y="199.344" width="16.787" height="15.738"/>
	</g>
</g>
<g>
	<g>
		<rect x="360.163" y="199.344" width="15.738" height="15.738"/>
	</g>
</g>
<g>
	<g>
		<rect x="408.425" y="199.344" width="15.738" height="15.738"/>
	</g>
</g>
<g>
	<g>
		<rect x="432.556" y="199.344" width="15.738" height="15.738"/>
	</g>
</g>
<g>
	<g>
		<rect x="455.638" y="199.344" width="16.787" height="15.738"/>
	</g>
</g>
<g>
	<g>
		<path d="M488.218,23.688v152.574h-146.57L135.823,313.628V23.688h-15.738v464.17h15.738V344.131h216.995V239.213h135.402v248.645
			h15.738V23.688H488.218z M142.047,328.393l195.031-130.162v130.162H142.047z M488.219,199.344h-0.001h-7.402v15.738h7.402v8.393
			H352.817V192h135.402V199.344z"/>
	</g>
</g>
<g>
	<g>
		<rect x="368.556" y="288.525" width="39.869" height="15.738"/>
	</g>
</g>
<g>
	<g>
		<rect x="199.638" y="384" width="56.656" height="15.738"/>
	</g>
</g>
<g>
	<g>
		<rect x="256.294" y="400.787" width="32.525" height="15.738"/>
	</g>
</g>
<g>
	<g>
		<rect x="246.851" y="456.393" width="105.967" height="15.738"/>
	</g>
</g>
<g>
	<g>
		<rect x="360.163" y="416.525" width="31.475" height="15.738"/>
	</g>
</g>
</svg>