<?xml version="1.0" encoding="iso-8859-1"?>
<!-- Uploaded to: SVG Repo, www.svgrepo.com, Generator: SVG Repo Mixer Tools -->
<!DOCTYPE svg PUBLIC "-//W3C//DTD SVG 1.1//EN" "http://www.w3.org/Graphics/SVG/1.1/DTD/svg11.dtd">
<svg fill="#000000" height="800px" width="800px" version="1.1" id="Capa_1" xmlns="http://www.w3.org/2000/svg" xmlns:xlink="http://www.w3.org/1999/xlink" 
	 viewBox="0 0 511 511" xml:space="preserve">
<g>
	<path d="M487.5,68h-464C10.542,68,0,78.542,0,91.5v96c0,68.247,26.577,132.408,74.834,180.666
		C123.092,416.423,187.254,443,255.5,443s132.408-26.577,180.666-74.834C484.423,319.908,511,255.747,511,187.5v-96
		C511,78.542,500.458,68,487.5,68z M496,187.5c0,64.24-25.016,124.634-70.44,170.059C380.135,402.984,319.74,428,255.5,428H255.5
		c-64.24,0-124.634-25.016-170.059-70.44C40.016,312.135,15,251.74,15,187.5v-96c0-4.687,3.813-8.5,8.5-8.5h464
		c4.687,0,8.5,3.813,8.5,8.5V187.5z"/>
	<path d="M436.06,156H316.832c-0.413-0.816-0.857-1.623-1.358-2.41l-31.019-48.744c-0.294-0.462-0.637-0.89-1.024-1.277
		c-15.401-15.401-40.46-15.401-55.861,0c-7.52,7.52-11.358,17.343-11.534,27.22c-0.04,0.427-0.038,0.864-0.003,1.305
		c0.04,2.654,0.346,5.304,0.916,7.908L218.831,156H74.94C60.085,156,48,168.085,48,182.94v4.56
		c0,54.72,21.193,106.387,59.675,145.483c38.437,39.05,89.672,61.064,144.267,61.987c1.152,0.02,2.293,0.029,3.443,0.029
		c53.444-0.002,104.244-21.065,143.371-59.537C439.584,295.319,463,239.731,463,182.94C463,168.085,450.915,156,436.06,156z
		 M255.5,107c6.287,0,12.212,2.352,16.771,6.64l30.548,48.004c0.506,0.795,0.902,1.63,1.211,2.483
		c0.071,0.855,0.284,1.668,0.618,2.417c0.552,3.778-0.672,7.697-3.554,10.579c-4.147,4.147-10.501,4.847-15.451,1.696
		l-48.003-30.548c-2.897-3.08-4.885-6.792-5.886-10.81l-0.744-6.327c0.093-6.407,2.626-12.418,7.167-16.959
		C242.803,109.548,248.956,107,255.5,107z M274.757,189.671l-8.503,61.117c-0.731,5.251-5.281,9.212-10.583,9.212
		c-5.417,0-9.978-4.057-10.611-9.436l-10.147-86.249L274.757,189.671z M388.239,324.767
		c-37.077,36.456-85.398,56.072-136.043,55.206c-50.64-0.856-98.168-21.281-133.831-57.511C82.663,286.188,63,238.258,63,187.5
		v-4.56c0-6.583,5.356-11.94,11.94-11.94h145.655l9.567,81.316C231.683,265.248,242.649,275,255.67,275
		c12.746,0,23.683-9.52,25.439-22.145l7.967-57.263c1.085,0.131,2.174,0.21,3.262,0.21c7.059,0,14.045-2.757,19.391-8.103
		c4.657-4.657,7.333-10.573,7.935-16.7H436.06c6.583,0,11.94,5.356,11.94,11.953C448,235.735,426.218,287.425,388.239,324.767z"/>
	<path d="M255.5,139c1.97,0,3.91-0.8,5.3-2.2c1.4-1.39,2.2-3.33,2.2-5.3c0-1.97-0.8-3.91-2.2-5.3c-1.39-1.4-3.33-2.2-5.3-2.2
		c-1.97,0-3.91,0.8-5.3,2.2c-1.4,1.39-2.2,3.33-2.2,5.3c0,1.97,0.8,3.91,2.2,5.3C251.59,138.2,253.53,139,255.5,139z"/>
	<path d="M71.5,115h96c4.142,0,7.5-3.358,7.5-7.5s-3.358-7.5-7.5-7.5h-96c-4.142,0-7.5,3.358-7.5,7.5S67.358,115,71.5,115z"/>
	<path d="M71.5,139h96c4.142,0,7.5-3.358,7.5-7.5s-3.358-7.5-7.5-7.5h-96c-4.142,0-7.5,3.358-7.5,7.5S67.358,139,71.5,139z"/>
</g>
</svg>