<?xml version="1.0" encoding="iso-8859-1"?>
<!-- Uploaded to: SVG Repo, www.svgrepo.com, Generator: SVG Repo Mixer Tools -->
<!DOCTYPE svg PUBLIC "-//W3C//DTD SVG 1.1//EN" "http://www.w3.org/Graphics/SVG/1.1/DTD/svg11.dtd">
<svg fill="#000000" height="800px" width="800px" version="1.1" id="Capa_1" xmlns="http://www.w3.org/2000/svg" xmlns:xlink="http://www.w3.org/1999/xlink" 
	 viewBox="0 0 511 511" xml:space="preserve">
<g>
	<path d="M423.5,0h-336C74.542,0,64,10.542,64,23.5v64c0,21.379,9.444,40.582,24.364,53.696C88.13,141.922,88,142.696,88,143.5v200
		C88,435.86,163.14,511,255.5,511S423,435.86,423,343.5v-200c0-0.804-0.13-1.578-0.364-2.304C437.556,128.082,447,108.879,447,87.5
		v-64C447,10.542,436.458,0,423.5,0z M408,343.5c0,84.089-68.411,152.5-152.5,152.5S103,427.589,103,343.5V151.154
		c9.759,5.003,20.8,7.846,32.5,7.846h240c11.7,0,22.741-2.843,32.5-7.846V343.5z M432,87.5c0,31.154-25.346,56.5-56.5,56.5h-240
		C104.346,144,79,118.654,79,87.5v-64c0-4.687,3.813-8.5,8.5-8.5h336c4.687,0,8.5,3.813,8.5,8.5V87.5z"/>
	<path d="M303.5,192h-96c-39.425,0-71.5,32.075-71.5,71.5v76.837c0,31.258,11.604,61.138,32.673,84.135
		c21.347,23.301,50.135,36.936,81.061,38.392c1.952,0.092,3.895,0.138,5.834,0.138c30.882,0,59.958-11.607,82.409-33.027
		C361.852,407.197,375,376.487,375,343.5v-80C375,224.075,342.925,192,303.5,192z M360,343.5c0,28.846-11.499,55.703-32.377,75.622
		c-20.865,19.906-48.266,30.118-77.184,28.759c-26.941-1.269-52.052-13.18-70.706-33.541C161.204,394.116,151,367.834,151,340.337
		V263.5c0-31.154,25.346-56.5,56.5-56.5h96c31.154,0,56.5,25.346,56.5,56.5V343.5z"/>
	<path d="M255.5,232c-26.191,0-47.5,21.309-47.5,47.5s21.309,47.5,47.5,47.5s47.5-21.309,47.5-47.5S281.691,232,255.5,232z
		 M255.5,312c-17.92,0-32.5-14.58-32.5-32.5s14.58-32.5,32.5-32.5s32.5,14.58,32.5,32.5S273.42,312,255.5,312z"/>
	<path d="M223.5,56C210.542,56,200,66.542,200,79.5s10.542,23.5,23.5,23.5S247,92.458,247,79.5S236.458,56,223.5,56z M223.5,88
		c-4.687,0-8.5-3.813-8.5-8.5s3.813-8.5,8.5-8.5s8.5,3.813,8.5,8.5S228.187,88,223.5,88z"/>
	<path d="M287.5,48C270.131,48,256,62.131,256,79.5s14.131,31.5,31.5,31.5S319,96.869,319,79.5S304.869,48,287.5,48z M287.5,96
		c-9.098,0-16.5-7.402-16.5-16.5S278.402,63,287.5,63S304,70.402,304,79.5S296.598,96,287.5,96z"/>
</g>
</svg>