<?xml version="1.0" encoding="iso-8859-1"?>
<!-- Uploaded to: SVG Repo, www.svgrepo.com, Generator: SVG Repo Mixer Tools -->
<!DOCTYPE svg PUBLIC "-//W3C//DTD SVG 1.1//EN" "http://www.w3.org/Graphics/SVG/1.1/DTD/svg11.dtd">
<svg fill="#000000" height="800px" width="800px" version="1.1" id="Capa_1" xmlns="http://www.w3.org/2000/svg" xmlns:xlink="http://www.w3.org/1999/xlink" 
	 viewBox="0 0 511 511" xml:space="preserve">
<path d="M439.5,32h-368C32.075,32,0,64.075,0,103.5v320C0,445.28,17.72,463,39.5,463h32c10.299,0,19.687-3.966,26.726-10.447
	C103.63,467.937,118.293,479,135.5,479h240c17.207,0,31.87-11.063,37.274-26.447C419.813,459.034,429.201,463,439.5,463h32
	c21.78,0,39.5-17.72,39.5-39.5v-320C511,64.075,478.925,32,439.5,32z M354.606,224l-129-129h18.787l129,129H354.606z M314.606,224
	l-129-129h18.787l129,129H314.606z M274.606,224l-129-129h18.787l129,129H274.606z M234.606,224L116.803,106.197
	c-1.141-1.141-2.558-1.832-4.036-2.083c2.307-4.582,6.677-7.939,11.89-8.851L253.394,224H234.606z M194.606,224L111,140.394v-18.787
	L213.394,224H194.606z M154.606,224L111,180.394v-18.787L173.394,224H154.606z M111,201.606L133.394,224H127.5
	c-9.098,0-16.5-7.402-16.5-16.5V201.606z M392.138,221.532L265.606,95h18.787l115.344,115.344
	C398.911,215.069,396.075,219.099,392.138,221.532z M324.394,95L400,170.606v18.787L305.606,95H324.394z M364.394,95L400,130.606
	v18.787L345.606,95H364.394z M385.783,95.177c7.27,1.014,13.026,6.77,14.04,14.04L385.783,95.177z M376,80h-8.497
	c-0.002,0-0.003,0-0.005,0h-39.995c-0.002,0-0.003,0-0.005,0h-39.995c-0.002,0-0.003,0-0.005,0h-39.995c-0.002,0-0.003,0-0.005,0
	h-39.995c-0.002,0-0.003,0-0.005,0h-39.995c-0.002,0-0.003,0-0.005,0H135V47h241V80z M71.5,448h-32C25.991,448,15,437.009,15,423.5
	v-320C15,72.346,40.346,47,71.5,47H120v33.909c-13.759,3.375-24,15.806-24,30.591v31.998c0,0.001,0,0.003,0,0.005v39.995
	c0,0.001,0,0.003,0,0.005V199.5v8v216C96,437.009,85.009,448,71.5,448z M400,439.5c0,13.509-10.991,24.5-24.5,24.5h-240
	c-13.509,0-24.5-10.991-24.5-24.5v-8c0-0.844-0.146-1.652-0.403-2.41c0.26-1.827,0.403-3.692,0.403-5.59V234.319
	c4.802,2.965,10.454,4.681,16.5,4.681h256c6.046,0,11.698-1.716,16.5-4.681V423.5c0,1.898,0.143,3.763,0.403,5.59
	c-0.257,0.757-0.403,1.566-0.403,2.41V439.5z M496,423.5c0,13.509-10.991,24.5-24.5,24.5h-32c-13.509,0-24.5-10.991-24.5-24.5
	V207.502c0-0.001,0-0.003,0-0.005V199.5v-31.998c0-0.001,0-0.003,0-0.005v-39.995c0-0.001,0-0.003,0-0.005V111.5
	c0-14.785-10.241-27.216-24-30.591V47h48.5c31.154,0,56.5,25.346,56.5,56.5V423.5z"/>
</svg>