<?xml version="1.0" encoding="iso-8859-1"?>
<!-- Uploaded to: SVG Repo, www.svgrepo.com, Generator: SVG Repo Mixer Tools -->
<!DOCTYPE svg PUBLIC "-//W3C//DTD SVG 1.1//EN" "http://www.w3.org/Graphics/SVG/1.1/DTD/svg11.dtd">
<svg fill="#000000" height="800px" width="800px" version="1.1" id="Capa_1" xmlns="http://www.w3.org/2000/svg" xmlns:xlink="http://www.w3.org/1999/xlink" 
	 viewBox="0 0 495 495" xml:space="preserve">
<path d="M403.5,24h-8c-2.997,0-5.862,0.57-8.5,1.598V23.5C387,10.542,376.458,0,363.5,0h-96C254.542,0,244,10.542,244,23.5v8V312
	H99.5h-8C78.542,312,68,322.542,68,335.5v96c0,12.958,10.542,23.5,23.5,23.5h8c0.721,0,1.433-0.038,2.138-0.102
	c-1.053,2.666-1.638,5.566-1.638,8.602v8c0,12.958,10.542,23.5,23.5,23.5h248c30.603,0,55.5-24.897,55.5-55.5v-392
	C427,34.542,416.458,24,403.5,24z M334.606,456l-41-41h18.787l41,41H334.606z M235,440v-16.498c0-0.002,0-0.005,0-0.008
	c-0.003-12.954-10.541-23.492-23.495-23.495c-0.002,0-0.005,0-0.008,0h-39.995c-0.001,0-0.003,0-0.005,0H155.5
	c-12.958,0-23.5,10.542-23.5,23.5V440h-8.5c-0.721,0-1.433,0.038-2.138,0.102c1.053-2.666,1.638-5.566,1.638-8.602v-96
	c0-2.997-0.57-5.862-1.597-8.5H244v113H235z M190.606,456l-37.803-37.803c-0.681-0.681-1.463-1.197-2.295-1.562
	c1.404-1.023,3.126-1.635,4.992-1.635h12.894l41,41H190.606z M147,433.606L169.393,456H155.5c-4.687,0-8.5-3.813-8.5-8.5V433.606z
	 M208.393,415L220,426.606v18.787L189.606,415H208.393z M347,92.394V87.5c0-3.753,2.448-6.941,5.829-8.064L388,114.607v18.787
	L347,92.394z M355.502,64c-0.003,0-0.006,0-0.009,0C342.539,64.004,332,74.544,332,87.5v7.987c0,0.008,0,0.017,0,0.025v39.975
	c0,0.008,0,0.017,0,0.025v7.987c0,12.958,10.542,23.5,23.5,23.5H372v8.999H259V53.402c2.638,1.028,5.503,1.598,8.5,1.598h96
	c2.997,0,5.862-0.57,8.5-1.598V64H355.502z M259,190.999h113V200h-16.498c-0.003,0-0.006,0-0.009,0
	C342.539,200.004,332,210.544,332,223.5v7.987c0,0.008,0,0.017,0,0.025v39.975c0,0.008,0,0.017,0,0.025v7.987
	c0,12.958,10.542,23.5,23.5,23.5H372v9H259V190.999z M347,228.394V223.5c0-3.753,2.448-6.941,5.829-8.064L388,250.607v18.787
	L347,228.394z M259,327h113v9h-0.498c-0.002,0-0.003,0-0.005,0H355.5c-12.958,0-23.5,10.542-23.5,23.5v31.987
	c0,0.008,0,0.017,0,0.025V400h-16.498c-0.002,0-0.003,0-0.005,0H291.5c-12.958,0-23.5,10.542-23.5,23.5V440h-9V327z M388,389.394
	l-35.197-35.197c-0.681-0.681-1.463-1.197-2.295-1.562c1.404-1.023,3.126-1.635,4.992-1.635h12.893L388,370.607V389.394z
	 M347,388.394v-18.787l41,41v18.787L347,388.394z M294.606,456L283,444.394v-18.787L313.393,456H294.606z M374.344,455.737
	L333.606,415h5.894c3.497,0,6.427-2.397,7.257-5.636l35.439,35.439c1.141,1.141,2.559,1.832,4.037,2.083
	C383.927,451.468,379.556,454.826,374.344,455.737z M379.5,288h-12.894L347,268.394v-18.787l35.196,35.196
	c0.681,0.681,1.463,1.197,2.296,1.562C383.089,287.388,381.366,288,379.5,288z M388,229.394L373.606,215h5.894
	c4.687,0,8.5,3.813,8.5,8.5V229.394z M379.5,152h-12.894L347,132.394v-18.787l35.196,35.196c0.681,0.681,1.463,1.197,2.296,1.562
	C383.089,151.388,381.366,152,379.5,152z M388,93.394L373.606,79h5.894c4.687,0,8.5,3.813,8.5,8.5V93.394z M267.5,15h96
	c4.687,0,8.5,3.813,8.5,8.5v8c0,4.687-3.813,8.5-8.5,8.5h-96c-4.687,0-8.5-3.813-8.5-8.5v-8C259,18.813,262.813,15,267.5,15z
	 M91.5,440c-4.687,0-8.5-3.813-8.5-8.5v-96c0-4.687,3.813-8.5,8.5-8.5h8c4.687,0,8.5,3.813,8.5,8.5v96c0,4.687-3.813,8.5-8.5,8.5
	H91.5z M412,439.5c0,22.332-18.168,40.5-40.5,40.5h-248c-4.687,0-8.5-3.813-8.5-8.5v-8c0-4.687,3.813-8.5,8.5-8.5h9.734
	c3.138,9.29,11.93,16,22.266,16h56c10.336,0,19.128-6.71,22.266-16h35.469c3.138,9.29,11.93,16,22.266,16h80
	c17.369,0,31.5-14.131,31.5-31.5v-80c0-10.335-6.71-19.127-16-22.266v-35.469c9.29-3.138,16-11.93,16-22.266v-56
	c0-10.335-6.71-19.127-16-22.266v-35.469c9.29-3.138,16-11.93,16-22.266v-56c0-10.335-6.71-19.127-16-22.266V47.5
	c0-4.687,3.813-8.5,8.5-8.5h8c4.687,0,8.5,3.813,8.5,8.5V439.5z"/>
</svg>