<?xml version="1.0" encoding="iso-8859-1"?>
<!-- Uploaded to: SVG Repo, www.svgrepo.com, Generator: SVG Repo Mixer Tools -->
<!DOCTYPE svg PUBLIC "-//W3C//DTD SVG 1.1//EN" "http://www.w3.org/Graphics/SVG/1.1/DTD/svg11.dtd">
<svg fill="#000000" height="800px" width="800px" version="1.1" id="Capa_1" xmlns="http://www.w3.org/2000/svg" xmlns:xlink="http://www.w3.org/1999/xlink" 
	 viewBox="0 0 511 511" xml:space="preserve">
<path d="M503.5,131c4.142,0,7.5-3.357,7.5-7.5c0-4.142-3.358-7.5-7.5-7.5H487v-9h16.5c4.142,0,7.5-3.357,7.5-7.5
	c0-4.142-3.358-7.5-7.5-7.5h-24h-448h-24C3.358,92,0,95.358,0,99.5c0,4.143,3.358,7.5,7.5,7.5H24v9H7.5c-4.142,0-7.5,3.358-7.5,7.5
	c0,4.143,3.358,7.5,7.5,7.5H24v9H7.5c-4.142,0-7.5,3.358-7.5,7.5c0,4.143,3.358,7.5,7.5,7.5H24v9H7.5c-4.142,0-7.5,3.358-7.5,7.5
	c0,4.143,3.358,7.5,7.5,7.5H24v9H7.5c-4.142,0-7.5,3.358-7.5,7.5c0,4.143,3.358,7.5,7.5,7.5H24v9H7.5c-4.142,0-7.5,3.358-7.5,7.5
	c0,4.143,3.358,7.5,7.5,7.5H24v9H7.5c-4.142,0-7.5,3.358-7.5,7.5c0,4.143,3.358,7.5,7.5,7.5H24v9H7.5c-4.142,0-7.5,3.358-7.5,7.5
	c0,4.143,3.358,7.5,7.5,7.5H24v9H7.5c-4.142,0-7.5,3.358-7.5,7.5c0,4.143,3.358,7.5,7.5,7.5H24v9H7.5c-4.142,0-7.5,3.358-7.5,7.5
	c0,4.143,3.358,7.5,7.5,7.5H24v9H7.5c-4.142,0-7.5,3.358-7.5,7.5c0,4.143,3.358,7.5,7.5,7.5H24v9H7.5c-4.142,0-7.5,3.358-7.5,7.5
	c0,4.143,3.358,7.5,7.5,7.5H24v9H7.5c-4.142,0-7.5,3.358-7.5,7.5c0,4.143,3.358,7.5,7.5,7.5H24v9H7.5c-4.142,0-7.5,3.358-7.5,7.5
	c0,4.143,3.358,7.5,7.5,7.5h24h448h24c4.142,0,7.5-3.357,7.5-7.5c0-4.142-3.358-7.5-7.5-7.5H487v-9h16.5c4.142,0,7.5-3.357,7.5-7.5
	c0-4.142-3.358-7.5-7.5-7.5H487v-9h16.5c4.142,0,7.5-3.357,7.5-7.5c0-4.142-3.358-7.5-7.5-7.5H487v-9h16.5
	c4.142,0,7.5-3.357,7.5-7.5c0-4.142-3.358-7.5-7.5-7.5H487v-9h16.5c4.142,0,7.5-3.357,7.5-7.5c0-4.142-3.358-7.5-7.5-7.5H487v-9
	h16.5c4.142,0,7.5-3.357,7.5-7.5c0-4.142-3.358-7.5-7.5-7.5H487v-9h16.5c4.142,0,7.5-3.357,7.5-7.5c0-4.142-3.358-7.5-7.5-7.5H487
	v-9h16.5c4.142,0,7.5-3.357,7.5-7.5c0-4.142-3.358-7.5-7.5-7.5H487v-9h16.5c4.142,0,7.5-3.357,7.5-7.5c0-4.142-3.358-7.5-7.5-7.5
	H487v-9h16.5c4.142,0,7.5-3.357,7.5-7.5c0-4.142-3.358-7.5-7.5-7.5H487v-9h16.5c4.142,0,7.5-3.357,7.5-7.5
	c0-4.142-3.358-7.5-7.5-7.5H487v-9h16.5c4.142,0,7.5-3.357,7.5-7.5c0-4.142-3.358-7.5-7.5-7.5H487v-9H503.5z M472,404h-33V107h33
	V404z M111,107h33v297h-33V107z M96,404h-9V107h9V404z M159,107h33v297h-33V107z M207,107h9v297h-9V107z M231,107h49v297h-49V107z
	 M295,107h9v297h-9V107z M319,107h33v297h-33V107z M367,107h33v297h-33V107z M415,107h9v297h-9V107z M39,107h33v297H39V107z"/>
</svg>